<svg version="1.2" xmlns="http://www.w3.org/2000/svg" viewBox="0 0 375 133" width="375" height="133">
	<title>Green Modern Medical Health Care Logo-2</title>
	<defs>
		<clipPath clipPathUnits="userSpaceOnUse" id="cp1">
			<path d="m14 20h96.91v97.63h-96.91z"/>
		</clipPath>
		<clipPath clipPathUnits="userSpaceOnUse" id="cp2">
			<path d="m4.41 13.38l43.59-0.01v43.63h-43.59z"/>
		</clipPath>
		<clipPath clipPathUnits="userSpaceOnUse" id="cp3">
			<path d="m62 20h48.91v97.63h-48.91z"/>
		</clipPath>
	</defs>
	<style>
		.s0 { fill: #04d1c8 } 
		.s1 { fill: #03f5a7 } 
		.s2 { fill: #ffffff } 
	</style>
	<g id="Clip-Path" clip-path="url(#cp1)">
		<g>
			<path class="s0" d="m62.8 20.7h12.2c20 0 36.3 16.3 36.3 36.3v60.6h-60.7c-19.9 0-36.2-16.3-36.2-36.3v-12.1h20.2v12.1c0 8.9 7.2 16.1 16 16.1h40.5v-40.4c0-8.9-7.2-16.1-16.1-16.1h-12.2z"/>
		</g>
	</g>
	<g id="Clip-Path" clip-path="url(#cp2)">
		<g>
			<path class="s0" d="m18.8 28.1h-14.4v14.1h14.4v14.4h14.1v-14.4h14.4v-14.1h-14.4v-14.4h-14.1z"/>
		</g>
	</g>
	<g id="Clip-Path" clip-path="url(#cp3)">
		<g>
			<path class="s1" d="m62.8 20.7h12.2c20 0 36.3 16.3 36.3 36.3v60.6h-1l-19.6-20.2h0.4v-40.4c0-8.9-7.2-16.1-16.1-16.1h-12.2z"/>
		</g>
	</g>
	<g>
		<g>
			<g>
				<path class="s2" d="m123.7 81.7v-55.1h10v55.1z"/>
			</g>
		</g>
	</g>
	<g>
		<g>
			<g>
				<path class="s2" d="m136.7 81.7v-39h8.9l0.8 6.6q1.8-3.5 5.2-5.5 3.5-2.1 8.1-2.1 7.2 0 11.2 4.6 4.1 4.5 4.1 13.3v22.1h-10.1v-21.1q0-5-2-7.7-2.1-2.7-6.4-2.7-4.3 0-7 3-2.7 3-2.7 8.3v20.2z"/>
			</g>
		</g>
	</g>
	<g>
		<g>
			<g>
				<path class="s2" d="m190.5 82.6q-5 0-8.2-1.6-3.2-1.6-4.8-4.3-1.6-2.6-1.6-5.9 0-5.4 4.3-8.8 4.2-3.4 12.7-3.4h9.9v-0.9q0-4-2.3-5.9-2.2-1.9-5.6-1.9-3.1 0-5.4 1.5-2.3 1.4-2.8 4.2h-9.8q0.3-4.2 2.8-7.3 2.5-3.2 6.4-4.9 4-1.7 8.8-1.7 8.4 0 13.2 4.2 4.8 4.2 4.8 11.8v24h-8.6l-0.9-6.3q-1.8 3.1-4.9 5.2-3.1 2-8 2zm2.3-7.8q4.3 0 6.7-2.9 2.4-2.8 3.1-7h-8.6q-4 0-5.7 1.5-1.8 1.4-1.8 3.6 0 2.2 1.8 3.5 1.7 1.3 4.5 1.3z"/>
			</g>
		</g>
	</g>
	<g>
		<g>
			<g>
				<path class="s2" d="m238.1 82.6q-4.4 0-7.7-1.6-3.3-1.7-5.3-4.7l-1.1 5.4h-9v-56.7h10.1v23.2q1.9-2.5 5-4.5 3.1-2 8-2 5.5 0 9.9 2.7 4.3 2.7 6.8 7.3 2.5 4.7 2.5 10.5 0 6-2.5 10.6-2.5 4.6-6.8 7.2-4.4 2.6-9.9 2.6zm-2.1-8.8q4.8 0 8-3.2 3.1-3.2 3.1-8.4 0-5.1-3.1-8.4-3.2-3.3-8-3.3-4.9 0-8 3.3-3.1 3.3-3.1 8.4 0 5.1 3.1 8.4 3.1 3.2 8 3.2z"/>
			</g>
		</g>
	</g>
	<g>
		<g>
			<g>
				<path class="s2" d="m264.3 36.6q-2.8 0-4.6-1.7-1.7-1.6-1.7-4.1 0-2.5 1.7-4.2 1.8-1.6 4.6-1.6 2.7 0 4.5 1.6 1.7 1.7 1.7 4.2 0 2.5-1.7 4.1-1.8 1.7-4.5 1.7zm-5.1 45.1v-39h10.1v39z"/>
			</g>
		</g>
	</g>
	<g>
		<g>
			<g>
				<path class="s2" d="m272.4 81.7v-56.7h10v56.7z"/>
			</g>
		</g>
	</g>
	<g>
		<g>
			<g>
				<path class="s2" d="m290.7 36.6q-2.8 0-4.5-1.7-1.8-1.6-1.8-4.1 0-2.5 1.8-4.2 1.7-1.6 4.5-1.6 2.7 0 4.5 1.6 1.8 1.7 1.8 4.2 0 2.5-1.8 4.1-1.8 1.7-4.5 1.7zm-5 45.1v-39h10v39z"/>
			</g>
		</g>
	</g>
	<g>
		<g>
			<g>
				<path class="s2" d="m316.2 81.7q-6.2 0-9.9-3-3.7-3-3.6-10.6v-17h-6.7v-8.4h6.7l1.1-10.5h8.9v10.5h10.6v8.4h-10.6v17q0 2.9 1.2 3.9 1.3 1.1 4.3 1.1h4.8v8.6z"/>
			</g>
		</g>
	</g>
	<g>
		<g>
			<g>
				<path class="s2" d="m329.3 99l9.1-19.9h-2.4l-15.2-36.4h11l10.9 27.4 11.4-27.4h10.7l-24.8 56.3z"/>
			</g>
		</g>
	</g>
	<g>
		<g>
			<g>
				<path class="s0" d="m129.2 113.9q-1.8 0-3.2-0.8-1.3-0.9-2.1-2.3-0.7-1.5-0.7-3.5 0-1.9 0.7-3.4 0.8-1.4 2.1-2.3 1.4-0.8 3.2-0.8 2.2 0 3.6 1 1.3 1.1 1.7 2.9h-1.7q-0.3-1.1-1.2-1.9-0.9-0.7-2.4-0.7-1.3 0-2.3 0.6-1.1 0.7-1.6 1.8-0.6 1.2-0.6 2.8 0 1.7 0.6 2.8 0.5 1.2 1.6 1.8 1 0.7 2.3 0.7 1.5 0 2.4-0.7 0.9-0.7 1.2-1.9h1.7q-0.4 1.8-1.7 2.9-1.4 1-3.6 1z"/>
			</g>
		</g>
	</g>
	<g>
		<g>
			<g>
				<path class="s0" d="m155.6 113.9q-1.9 0-3.3-0.8-1.4-0.8-2.1-2.3-0.8-1.5-0.8-3.5 0-1.9 0.8-3.4 0.7-1.4 2.1-2.3 1.4-0.8 3.3-0.8 1.9 0 3.3 0.8 1.4 0.9 2.2 2.3 0.8 1.5 0.8 3.4 0 2-0.8 3.5-0.8 1.5-2.2 2.3-1.4 0.8-3.3 0.8zm0-1.3q1.4 0 2.5-0.7 1-0.6 1.6-1.8 0.6-1.1 0.6-2.8 0-1.6-0.6-2.7-0.6-1.2-1.6-1.8-1.1-0.7-2.5-0.7-1.4 0-2.4 0.7-1.1 0.6-1.7 1.8-0.6 1.1-0.6 2.7 0 1.7 0.6 2.8 0.6 1.2 1.7 1.8 1 0.7 2.4 0.7z"/>
			</g>
		</g>
	</g>
	<g>
		<g>
			<g>
				<path class="s0" d="m177.2 113.7v-12.7h3.9q3.4 0 4.9 1.7 1.6 1.7 1.6 4.7 0 2.9-1.6 4.6-1.5 1.7-4.9 1.7zm1.5-1.3h2.4q1.8 0 2.9-0.6 1.1-0.6 1.6-1.7 0.4-1.2 0.4-2.7 0-1.6-0.4-2.8-0.5-1.1-1.6-1.7-1.1-0.6-2.9-0.6h-2.4z"/>
			</g>
		</g>
	</g>
	<g>
		<g>
			<g>
				<path class="s0" d="m203 113.7v-12.7h7.8v1.2h-6.3v4.5h5.8v1.2h-5.8v4.5h6.3v1.3z"/>
			</g>
		</g>
	</g>
</svg>